<svg xmlns="http://www.w3.org/2000/svg" width="800" height="800" class="icon" viewBox="0 0 1024 1024"><path fill="#f05071" d="M294.614 1002.666a21.333 21.333 0 0 1-21.334-19.84l-58.24-757.973h593.92l-58.24 757.973a21.333 21.333 0 0 1-21.333 19.84z"/><path fill="#5c2d51" d="m785.92 246.187-56.533 735.146H294.614L238.08 246.187zM832 203.52H192l60.16 781.013A42.667 42.667 0 0 0 294.827 1024h434.56a42.667 42.667 0 0 0 42.667-39.467z"/><path fill="#f05071" d="m215.68 182.187 14.72-144.64a18.133 18.133 0 0 1 18.134-16.214h526.933A18.133 18.133 0 0 1 793.6 37.547l14.72 144.64z"/><path fill="#5c2d51" d="m772.694 42.667 12.16 118.186H239.36l11.947-118.186zM775.467 0H248.534a39.467 39.467 0 0 0-39.254 35.413L192 203.52h640L814.72 35.413A39.467 39.467 0 0 0 775.467 0"/><path fill="#fdca89" d="M176.854 129.707h670.293v119.04H176.854z"/><path fill="#5c2d51" d="M825.814 151.04v76.373H198.187V151.04zm13.866-42.667H184.32a28.8 28.8 0 0 0-28.8 29.014v104.106a28.8 28.8 0 0 0 28.8 28.8h655.36a28.8 28.8 0 0 0 28.8-28.8V137.387a28.8 28.8 0 0 0-28.8-28.8z"/><path fill="#fdca89" d="m264.534 868.053-38.187-497.28h571.52l-38.4 497.28z"/><path fill="#5c2d51" d="M774.187 392.107 739.84 846.72H283.52l-34.133-454.613zm46.08-42.667h-616.96l41.387 539.946h534.613l41.6-539.946z"/></svg>