<svg xmlns="http://www.w3.org/2000/svg" width="800" height="800" fill="none" viewBox="0 0 24 24"><path fill="#744a30" fill-rule="evenodd" stroke="#2f2118" stroke-width=".96" d="M8.558 18.91c.045.708-.667 1.194-1.207.734-2.182-1.859-2.9-5.654-1.869-9.5 1.1-4.107 3.839-6.947 6.874-7.104.533-.028.92.476 1.002 1.003.062.403.158.81.202 1.171a5.67 5.67 0 0 1-.993 3.958l-2.838 4.026a6.92 6.92 0 0 0-1.252 4.433zm6.956-15.414c.015-.074.093-.067.162-.035 3.023 1.411 3.976 5.73 2.788 10.161-1.063 3.968-3.652 6.752-6.566 7.079-.624.07-1.077-.61-1.125-1.236-.053-.699-.221-1.454-.256-1.992a5.66 5.66 0 0 1 1.025-3.626L14.38 9.82a6.92 6.92 0 0 0 1.214-4.837c-.119-.97-.11-1.344-.08-1.487Z" clip-rule="evenodd"/></svg>